HIERARCHY
ROOT Hip
{
  OFFSET 0.0 0.0 0.0
  CHANNELS 6 Xposition Yposition Zposition Xrotation Yrotation Zrotation
  JOINT LowerSpine
  {
    OFFSET 0.0 0.061367 -0.03653
    CHANNELS 3 Xrotation Yrotation Zrotation
    JOINT MiddleSpine
    {
      OFFSET 0.0 0.056002 0.002633
      CHANNELS 3 Xrotation Yrotation Zrotation
      JOINT Chest
      {
        OFFSET 0.0 0.069296 -0.013882
        CHANNELS 3 Xrotation Yrotation Zrotation
        JOINT Neck
        {
          OFFSET 0.0 0.156156 -0.002923
          CHANNELS 3 Xrotation Yrotation Zrotation
          JOINT Head
          {
            OFFSET 0.0 0.088183 0.023986
            CHANNELS 3 Xrotation Yrotation Zrotation
            End Site
            {
              OFFSET 1e-06 0.123215 0.003678
            }
          }
        }
        JOINT LClavicle
        {
          OFFSET 0.014189 0.150698 0.046467
          CHANNELS 3 Xrotation Yrotation Zrotation
          JOINT LShoulder
          {
            OFFSET 0.082893 0.021616 -0.034976
            CHANNELS 3 Xrotation Yrotation Zrotation
            JOINT LForearm
            {
              OFFSET 0.195645 -0.000695 -0.001695
              CHANNELS 3 Xrotation Yrotation Zrotation
              JOINT LHand
              {
                OFFSET 0.163209 0.000474 -0.000977
                CHANNELS 3 Xrotation Yrotation Zrotation
                End Site
                {
                  OFFSET 0.0 0.006864 0.0
                }
              }
            }
          }
        }
        JOINT RClavicle
        {
          OFFSET -0.014189 0.150698 0.046467
          CHANNELS 3 Xrotation Yrotation Zrotation
          JOINT RShoulder
          {
            OFFSET -0.082908 0.021619 -0.034982
            CHANNELS 3 Xrotation Yrotation Zrotation
            JOINT RForearm
            {
              OFFSET -0.195645 -0.000695 -0.001695
              CHANNELS 3 Xrotation Yrotation Zrotation
              JOINT RHand
              {
                OFFSET -0.163209 0.000474 -0.000977
                CHANNELS 3 Xrotation Yrotation Zrotation
                End Site
                {
                  OFFSET 0.0 0.006864 0.0
                }
              }
            }
          }
        }
      }
    }
  }
  JOINT RThigh
  {
    OFFSET -0.072558 0.02774 -0.005953
    CHANNELS 3 Xrotation Yrotation Zrotation
    JOINT RShin
    {
      OFFSET -0.005253 -0.285537 0.0
      CHANNELS 3 Xrotation Yrotation Zrotation
      JOINT RFoot
      {
        OFFSET 0.0 -0.28038 0.0
        CHANNELS 3 Xrotation Yrotation Zrotation
        JOINT RToe
        {
          OFFSET 0.0 -0.030816 0.064441
          CHANNELS 3 Xrotation Yrotation Zrotation
          End Site
          {
            OFFSET 0.0 0.0 0.043231
          }
        }
      }
    }
  }
  JOINT LThigh
  {
    OFFSET 0.072557 0.027741 -0.005953
    CHANNELS 3 Xrotation Yrotation Zrotation
    JOINT LShin
    {
      OFFSET 0.005253 -0.285539 0.0
      CHANNELS 3 Xrotation Yrotation Zrotation
      JOINT LFoot
      {
        OFFSET 0.0 -0.28038 0.0
        CHANNELS 3 Xrotation Yrotation Zrotation
        JOINT LToe
        {
          OFFSET 0.0 -0.030816 0.064441
          CHANNELS 3 Xrotation Yrotation Zrotation
          End Site
          {
            OFFSET 0.0 0.0 0.043231
          }
        }
      }
    }
  }
}
MOTION
Frames: 14
Frame Time: 0.03333333333333333
-0.099179 0.546892 -0.066076 12.082218 5.267881 20.324299 -4.953064 16.42964 -24.05961 1.23718 -5.074094 -29.370531 -1.520425 -17.750566 18.544497 -5.792207 -29.94463 4.526062 -10.887482 27.892706 8.158577 -19.638983 21.587729 0.044967 13.90347 -10.221759 -29.895073 -13.817578 -37.727913 -33.550976 -16.739908 -18.337912 16.400185 12.635899 21.738222 25.813736 5.833984 19.072199 30.076107 -16.252228 40.304607 33.642658 23.279587 9.665102 16.456135 -26.21829 -0.519597 -31.772274 10.337234 7.885144 28.130161 -18.05434 -1.120982 25.541269 3.187269 -26.32024 -15.969028 -21.097204 6.388838 -15.494132 5.41678 24.351229 17.075418 9.681191 1.297411 -27.518715 -13.504378 25.280075 11.973175 
-0.103796 0.544195 -0.076242 11.613149 6.437722 21.992142 -3.492672 16.642591 -26.599678 0.084246 -6.152642 -30.961691 -1.111056 -20.014853 20.460464 -3.769006 -30.15913 2.271766 -9.06859 29.314749 8.602941 -24.120697 18.301332 1.681911 15.217841 -7.361595 -27.061823 -12.836243 -33.294792 -34.918129 -14.633719 -19.229082 17.719904 9.28603 26.470535 25.796934 7.850194 16.839466 29.17457 -14.935406 39.968693 32.858681 25.031387 9.930794 14.941666 -26.473928 -2.103539 -33.322647 9.180541 7.432897 27.90826 -18.698244 1.081883 26.145643 5.319543 -26.282991 -15.247657 -21.484686 8.96748 -18.56604 4.637467 25.135548 20.171949 9.382452 -2.409287 -28.395727 -13.55972 26.591717 13.292763 
-0.113345 0.548408 -0.06645 11.178085 8.884731 23.137646 -4.336035 17.395815 -27.682943 0.806999 -5.757622 -32.422157 -0.222004 -21.202837 21.088955 -4.011287 -31.840761 1.255789 -8.583774 30.70792 8.904311 -25.883659 18.951691 2.564366 15.737945 -7.046417 -25.450327 -13.04783 -31.877726 -36.59626 -14.49534 -19.962149 19.002975 9.064349 28.578587 26.236969 7.644881 16.349104 28.225142 -18.129086 40.548382 36.273865 26.222212 10.116407 15.09465 -23.343758 -2.055008 -34.549606 4.275023 9.823504 27.44541 -19.873821 0.746522 27.497892 6.824384 -26.715698 -15.904646 -19.195246 9.579916 -20.451651 2.238051 26.114122 21.557278 10.178992 -2.871098 -29.168224 -13.920416 27.604986 14.524937 
-0.114944 0.55508 -0.061086 11.492029 9.367446 23.141363 -4.738972 17.090019 -28.667042 0.738236 -5.333001 -33.062325 -0.641907 -22.346781 21.278286 -3.849012 -32.495953 0.952312 -8.46522 31.318724 8.930185 -26.156048 19.815781 2.827625 15.57228 -6.604098 -25.393131 -13.43689 -30.287436 -36.601654 -14.581983 -20.262287 19.475042 10.103363 28.366697 26.578682 7.05628 14.782747 27.787262 -20.962101 41.846657 37.91518 26.55928 10.103892 15.399107 -22.812611 -3.156063 -34.717449 1.933283 10.123349 27.991844 -19.563679 0.084153 28.174784 7.181513 -26.96035 -16.350292 -18.742367 8.439128 -21.379786 0.998208 26.130766 22.06179 10.971089 -2.049494 -29.342428 -13.964375 28.006369 15.066049 
-0.118536 0.559614 -0.055706 11.656137 9.296534 22.380812 -4.882937 16.466757 -29.236721 0.596817 -5.216088 -32.897141 -1.589271 -23.148882 21.362232 -3.308175 -32.540173 1.20982 -8.309072 31.368767 8.944215 -25.730949 20.485992 2.653361 15.452878 -6.336651 -26.508205 -13.822256 -28.701456 -35.935349 -14.694338 -20.19261 19.489328 11.474782 27.64986 26.268795 6.217693 13.0066 27.895758 -24.960611 44.028793 39.564808 26.463474 10.004066 15.52949 -22.162752 -4.54831 -33.873524 0.207637 10.196964 28.256313 -18.862862 -0.170908 28.578438 7.415558 -26.816553 -16.528419 -18.787233 6.579992 -21.218834 0.323139 25.767824 22.109694 11.690112 -0.824455 -29.016438 -13.910137 27.998775 15.07565 
-0.120978 0.561791 -0.051442 11.882274 9.56484 21.37406 -5.683795 15.835685 -29.122858 0.54001 -5.328096 -32.370716 -2.781413 -23.656546 21.123932 -3.096018 -32.459064 1.659137 -7.764681 31.263029 9.003311 -24.605062 21.391644 2.133874 15.968356 -6.615275 -27.835901 -14.24824 -27.795429 -35.436451 -14.741182 -19.99143 19.372421 13.367134 26.513588 25.661844 5.208468 12.167772 27.296282 -32.260769 47.438705 42.295868 26.189236 9.811687 15.649078 -20.692259 -5.37274 -32.96159 -2.161898 10.990291 28.303259 -18.324886 -0.479114 28.917761 7.602277 -26.526489 -16.578241 -18.879814 4.440835 -20.534939 -0.890755 25.594707 22.057528 12.634089 0.784604 -28.290915 -13.751136 27.868128 14.85754 
-0.11941 0.563461 -0.046418 12.61639 10.352082 20.094316 -7.224622 15.562892 -28.35532 0.677499 -5.351 -31.911362 -3.780517 -24.377703 20.537191 -2.879436 -32.280388 1.690021 -7.004907 31.145121 9.097874 -22.92539 22.638821 1.293564 16.352627 -6.55055 -28.88039 -14.836596 -27.485483 -35.009113 -14.683052 -19.786167 19.314764 15.964078 24.175602 25.250732 4.026613 11.756703 26.080587 -43.700314 51.609951 46.832279 25.936785 9.553316 15.743593 -19.362453 -6.121043 -32.123604 -4.250116 12.111146 27.978975 -17.595491 -1.501037 29.010197 7.846382 -26.202662 -16.509436 -19.082886 2.460304 -19.787804 -2.091344 25.729034 21.654251 13.793788 2.775092 -27.286163 -13.602446 27.678106 14.701325 
-0.115667 0.563583 -0.040492 13.796249 11.50192 18.972969 -8.934317 15.62248 -27.510134 0.971115 -5.421961 -31.897114 -4.530291 -25.288061 19.961422 -2.808667 -32.278942 1.319365 -6.174857 31.234205 9.286112 -21.10112 24.075741 0.171698 16.557878 -6.337039 -29.365421 -15.190157 -27.143547 -34.57935 -14.626163 -19.747589 19.48444 19.085802 21.158798 24.948395 1.819212 12.214517 24.309788 -59.836193 55.495815 53.961685 25.924582 9.304023 15.943427 -18.547798 -6.544747 -31.312685 -6.029703 13.706962 27.340881 -16.928268 -2.989605 29.036781 8.288742 -26.018816 -16.483809 -19.51354 0.980856 -19.319792 -3.261378 26.247965 21.101521 14.999582 5.09571 -26.355284 -13.745029 27.569672 14.836367 
-0.105856 0.562853 -0.031226 14.651698 12.977672 18.183247 -10.641335 16.337774 -26.298626 1.338957 -5.585379 -32.106483 -5.058678 -26.189072 19.758739 -2.39807 -32.531174 0.533852 -5.176199 31.573374 9.427954 -18.957376 25.809887 -1.687952 16.807644 -6.043087 -29.897165 -15.401878 -26.784794 -34.662907 -14.638769 -19.82686 19.795706 22.317596 17.436071 25.031191 -0.711246 13.118609 22.210222 -81.51255 58.453762 64.709419 26.118076 9.130243 16.151806 -17.763603 -7.084405 -30.582241 -8.158213 16.693617 25.734877 -16.14267 -5.035037 29.062008 8.58532 -26.072311 -16.642914 -18.829634 0.16985 -19.889822 -5.234347 27.039852 20.526184 16.464077 7.90948 -25.232372 -13.947091 27.666828 15.123441 
-0.092767 0.56336 -0.020847 15.735251 14.375485 17.526115 -12.35269 17.282757 -24.819408 1.724324 -5.631906 -32.387936 -5.666643 -26.759869 19.35898 -1.714662 -32.918949 -0.154043 -4.2577 31.944075 9.563813 -16.695845 27.552999 -4.034354 17.1546 -5.475972 -30.318708 -15.977877 -27.149519 -35.343102 -14.629977 -19.924459 20.163147 24.789778 13.173287 25.512577 -3.020721 14.073812 19.733744 -101.721291 59.905792 75.460312 26.32374 8.99148 16.400385 -17.706146 -7.491407 -29.826452 -9.989347 20.216806 23.58909 -15.066626 -7.388472 29.030279 9.099534 -26.120825 -16.766197 -18.14262 -0.066841 -20.626019 -7.391773 28.315027 19.695759 17.677744 10.577003 -24.066034 -14.011955 27.833652 15.484039 
-0.081011 0.565207 -0.012368 16.484716 15.231626 17.018711 -13.599846 18.291298 -23.487986 1.962725 -5.828043 -32.652012 -6.016367 -27.198223 19.084068 -0.768621 -33.176426 -0.70989 -3.704534 32.284737 9.689997 -14.717458 28.95541 -6.451858 17.468428 -4.734863 -30.613049 -16.601135 -27.451958 -36.163082 -14.527442 -20.076899 20.526922 26.140562 9.523167 26.005199 -4.666137 15.158157 17.022562 -118.411972 60.518536 85.851501 26.585859 8.971561 16.487648 -17.772305 -7.765789 -29.17918 -11.005776 22.957592 21.651846 -14.030074 -9.534928 28.86965 9.713998 -26.187344 -16.758423 -17.642351 -0.059017 -21.234455 -8.774665 29.360073 18.942204 18.609331 12.873525 -22.956652 -14.1781 28.014097 15.797393 
-0.069871 0.568531 -0.005404 17.429756 16.173058 16.32719 -14.798913 19.202934 -22.210962 2.160608 -6.317766 -32.75988 -7.148106 -27.681913 18.597857 0.254407 -33.423046 -1.282664 -3.260635 32.64291 9.672263 -12.811212 30.215746 -8.954079 17.998875 -4.143329 -30.589336 -16.911592 -27.740963 -36.870289 -14.267598 -20.231096 20.994259 27.100658 6.38971 26.183617 -5.77037 16.762535 14.467359 -130.580475 60.596497 94.718391 26.844246 9.041599 16.562487 -18.11585 -8.173573 -28.950714 -11.365669 25.035086 19.994839 -12.666285 -11.760982 28.56472 10.381787 -26.217617 -16.775496 -17.261948 0.239552 -21.809515 -9.995099 30.50275 18.222254 19.675268 14.540413 -21.776281 -14.497179 28.179319 16.051184 
-0.059057 0.572014 -0.000132 18.191271 16.86272 15.768262 -15.746064 19.910643 -20.985729 2.353475 -6.659098 -32.801819 -8.406565 -27.938992 17.978382 0.957217 -33.562595 -1.875668 -2.876114 32.879997 9.530096 -11.059396 31.196787 -11.169325 18.29892 -3.594582 -30.635302 -17.166357 -27.778223 -37.153191 -13.930906 -20.299948 21.3741 27.556841 3.852717 26.139769 -6.760785 18.189091 12.243894 -139.127884 60.361229 101.217834 27.046391 9.051012 16.537762 -18.243565 -8.445935 -28.76372 -11.403461 26.570471 18.312225 -11.276709 -13.557469 28.156372 10.947061 -26.175282 -16.714808 -16.937084 0.418087 -22.325424 -10.698675 31.193697 17.437212 20.444185 15.798064 -20.675573 -14.779556 28.218523 16.198174 
-0.048414 0.575028 0.003298 18.804119 17.323626 15.349645 -16.461617 20.393251 -19.997009 2.458959 -6.925108 -32.812515 -9.626182 -27.98387 17.444283 1.483512 -33.641994 -2.263405 -2.593099 33.076347 9.348257 -9.497019 31.989035 -13.013908 18.466295 -3.173057 -30.700348 -17.432743 -27.975176 -37.462433 -13.760818 -20.304459 21.648529 27.820541 1.724144 26.022583 -7.419243 19.623343 10.006754 -143.986679 60.015652 104.879326 27.229776 9.062039 16.470903 -18.341612 -8.630792 -28.816889 -11.187579 27.67878 16.981995 -9.868352 -14.995588 27.826351 11.335244 -26.166664 -16.638304 -16.78616 0.57528 -22.774607 -10.975279 31.794493 16.676643 21.099813 16.608561 -19.809925 -15.075172 28.217051 16.307205 
